<?xml version="1.0" standalone="no"?>
<!DOCTYPE svg PUBLIC "-//W3C//DTD SVG 20010904//EN"
 "http://www.w3.org/TR/2001/REC-SVG-20010904/DTD/svg10.dtd">
<svg version="1.0" xmlns="http://www.w3.org/2000/svg"
 width="390.000000pt" height="390.000000pt" viewBox="0 0 390.000000 390.000000"
 preserveAspectRatio="xMidYMid meet">
<metadata>
Created by potrace 1.14, written by Peter Selinger 2001-2017
</metadata>
<g transform="translate(0.000000,390.000000) scale(0.100000,-0.100000)"
fill="#000000" stroke="none">
<path d="M1680 3853 c-378 -71 -595 -160 -870 -357 -102 -73 -315 -282 -392
-386 -87 -118 -148 -222 -148 -252 0 -18 -5 -28 -15 -28 -8 0 -22 -18 -31 -40
-9 -22 -20 -40 -25 -40 -5 0 -9 -6 -9 -14 0 -8 -12 -38 -27 -67 -14 -29 -27
-62 -29 -74 -1 -11 -14 -60 -29 -110 -53 -182 -68 -301 -68 -535 -1 -234 14
-351 68 -535 15 -49 29 -101 31 -115 7 -35 106 -237 170 -347 128 -218 360
-457 585 -604 183 -120 381 -208 583 -259 99 -25 140 -30 352 -38 290 -11 489
8 633 59 31 11 88 27 126 35 87 18 287 114 415 198 298 196 512 439 675 766
212 428 253 930 113 1395 -12 39 -21 79 -20 90 1 10 -3 24 -8 30 -4 5 -38 69
-74 142 -112 227 -202 357 -356 517 -260 270 -607 463 -987 547 -85 19 -134
22 -368 25 -148 1 -281 0 -295 -3z"/>
<path d="M3050 146 c0 -13 7 -26 15 -30 11 -4 15 2 15 24 0 20 -5 30 -15 30
-9 0 -15 -9 -15 -24z"/>
</g>
</svg>
